/* XPM */
static char * grass_block_xpm[] = {
"64 64 41 1",
" 	c #74B44A",
".	c #76B64C",
"+	c #73B349",
"@	c #66A63C",
"#	c #6FAF45",
"$	c #5F9F35",
"%	c #6CAC42",
"&	c #7EBE54",
"*	c #6AAA40",
"=	c #67A73D",
"-	c #69A93F",
";	c #61A137",
">	c #509026",
",	c #6DAD43",
"'	c #75B54B",
")	c #8AB95A",
"!	c #81B051",
"~	c #83B253",
"{	c #593D29",
"]	c #68A83E",
"^	c #62A238",
"/	c #93C263",
"(	c #90BF60",
"_	c #6BAB41",
":	c #8DBC5D",
"<	c #9CCB6C",
"[	c #64A43A",
"}	c #70B046",
"|	c #7FBF55",
"1	c #92C162",
"2	c #97C667",
"3	c #57972D",
"4	c #60A036",
"5	c #6C6C6C",
"6	c #71B147",
"7	c #966C4A",
"8	c #704E36",
"9	c #B9855C",
"0	c #79553A",
"a	c #664731",
"b	c #878787",
"    ....++++@@@@@@@@####$$$$%%%%&&&&....****====----;;;;>>>>,,,,",
"    ....++++@@@@@@@@####$$$$%%%%&&&&....****====----;;;;>>>>,,,,",
"    ....++++@@@@@@@@####$$$$%%%%&&&&....****====----;;;;>>>>,,,,",
"    ....++++@@@@@@@@####$$$$%%%%&&&&....****====----;;;;>>>>,,,,",
"''''%%%%))))!!!!~~~~{{{{]]]]^^^^$$$$////((((++++;;;;%%%%====____",
"''''%%%%))))!!!!~~~~{{{{]]]]^^^^$$$$////((((++++;;;;%%%%====____",
"''''%%%%))))!!!!~~~~{{{{]]]]^^^^$$$$////((((++++;;;;%%%%====____",
"''''%%%%))))!!!!~~~~{{{{]]]]^^^^$$$$////((((++++;;;;%%%%====____",
"::::{{{{<<<<[[[[----{{{{}}}}{{{{    ||||11112222{{{{33334444{{{{",
"::::{{{{<<<<[[[[----{{{{}}}}{{{{    ||||11112222{{{{33334444{{{{",
"::::{{{{<<<<[[[[----{{{{}}}}{{{{    ||||11112222{{{{33334444{{{{",
"::::{{{{<<<<[[[[----{{{{}}}}{{{{    ||||11112222{{{{33334444{{{{",
"{{{{5555{{{{{{{{6666{{{{{{{{{{{{$$$${{{{,,,,{{{{7777{{{{{{{{8888",
"{{{{5555{{{{{{{{6666{{{{{{{{{{{{$$$${{{{,,,,{{{{7777{{{{{{{{8888",
"{{{{5555{{{{{{{{6666{{{{{{{{{{{{$$$${{{{,,,,{{{{7777{{{{{{{{8888",
"{{{{5555{{{{{{{{6666{{{{{{{{{{{{$$$${{{{,,,,{{{{7777{{{{{{{{8888",
"8888777777779999{{{{888800000000{{{{aaaa{{{{555500007777{{{{7777",
"8888777777779999{{{{888800000000{{{{aaaa{{{{555500007777{{{{7777",
"8888777777779999{{{{888800000000{{{{aaaa{{{{555500007777{{{{7777",
"8888777777779999{{{{888800000000{{{{aaaa{{{{555500007777{{{{7777",
"7777{{{{88887777000000008888{{{{{{{{00000000{{{{8888000077779999",
"7777{{{{88887777000000008888{{{{{{{{00000000{{{{8888000077779999",
"7777{{{{88887777000000008888{{{{{{{{00000000{{{{8888000077779999",
"7777{{{{88887777000000008888{{{{{{{{00000000{{{{8888000077779999",
"9999777700000000bbbb00000000999999997777999999997777000000007777",
"9999777700000000bbbb00000000999999997777999999997777000000007777",
"9999777700000000bbbb00000000999999997777999999997777000000007777",
"9999777700000000bbbb00000000999999997777999999997777000000007777",
"777777779999999977777777000000007777{{{{777700008888888800000000",
"777777779999999977777777000000007777{{{{777700008888888800000000",
"777777779999999977777777000000007777{{{{777700008888888800000000",
"777777779999999977777777000000007777{{{{777700008888888800000000",
"aaaa000077777777777700000000{{{{888800000000000000007777{{{{7777",
"aaaa000077777777777700000000{{{{888800000000000000007777{{{{7777",
"aaaa000077777777777700000000{{{{888800000000000000007777{{{{7777",
"aaaa000077777777777700000000{{{{888800000000000000007777{{{{7777",
"0000{{{{{{{{aaaa0000{{{{{{{{000000000000777777779999999977770000",
"0000{{{{{{{{aaaa0000{{{{{{{{000000000000777777779999999977770000",
"0000{{{{{{{{aaaa0000{{{{{{{{000000000000777777779999999977770000",
"0000{{{{{{{{aaaa0000{{{{{{{{000000000000777777779999999977770000",
"00009999777799999999000099997777{{{{99999999{{{{77778888bbbb8888",
"00009999777799999999000099997777{{{{99999999{{{{77778888bbbb8888",
"00009999777799999999000099997777{{{{99999999{{{{77778888bbbb8888",
"00009999777799999999000099997777{{{{99999999{{{{77778888bbbb8888",
"{{{{aaaa7777777777779999777788885555888888880000aaaa88888888{{{{",
"{{{{aaaa7777777777779999777788885555888888880000aaaa88888888{{{{",
"{{{{aaaa7777777777779999777788885555888888880000aaaa88888888{{{{",
"{{{{aaaa7777777777779999777788885555888888880000aaaa88888888{{{{",
"7777{{{{aaaa8888888877779999777788888888777788888888777799999999",
"7777{{{{aaaa8888888877779999777788888888777788888888777799999999",
"7777{{{{aaaa8888888877779999777788888888777788888888777799999999",
"7777{{{{aaaa8888888877779999777788888888777788888888777799999999",
"9999aaaa888877775555aaaa777788887777{{{{9999{{{{7777999977777777",
"9999aaaa888877775555aaaa777788887777{{{{9999{{{{7777999977777777",
"9999aaaa888877775555aaaa777788887777{{{{9999{{{{7777999977777777",
"9999aaaa888877775555aaaa777788887777{{{{9999{{{{7777999977777777",
"aaaaaaaa{{{{99990000{{{{8888{{{{99999999777788888888777777770000",
"aaaaaaaa{{{{99990000{{{{8888{{{{99999999777788888888777777770000",
"aaaaaaaa{{{{99990000{{{{8888{{{{99999999777788888888777777770000",
"aaaaaaaa{{{{99990000{{{{8888{{{{99999999777788888888777777770000",
"aaaa00007777999977770000bbbbaaaa777777778888aaaaaaaa8888{{{{{{{{",
"aaaa00007777999977770000bbbbaaaa777777778888aaaaaaaa8888{{{{{{{{",
"aaaa00007777999977770000bbbbaaaa777777778888aaaaaaaa8888{{{{{{{{",
"aaaa00007777999977770000bbbbaaaa777777778888aaaaaaaa8888{{{{{{{{"};
